<?xml version="1.0" encoding="iso-8859-1"?>
<!-- Generator: Adobe Illustrator 16.0.0, SVG Export Plug-In . SVG Version: 6.00 Build 0)  -->
<!DOCTYPE svg PUBLIC "-//W3C//DTD SVG 1.1//EN" "http://www.w3.org/Graphics/SVG/1.1/DTD/svg11.dtd">
<svg version="1.1" id="Capa_1" xmlns="http://www.w3.org/2000/svg" xmlns:xlink="http://www.w3.org/1999/xlink" x="0px" y="0px"
	 width="84.562px" height="84.562px" viewBox="0 0 84.562 84.562" style="enable-background:new 0 0 84.562 84.562;"
	 xml:space="preserve">
<g>
	<g>
		<path d="M42.316,17.194c-4.166,0-7.554,3.389-7.554,7.554c0,1.394,0.39,2.762,1.126,3.957c1.39,2.253,3.792,3.599,6.428,3.599
			c2.772,0,5.317-1.517,6.645-3.956c0.596-1.099,0.91-2.342,0.91-3.599C49.87,20.582,46.482,17.194,42.316,17.194z M47.202,27.392
			c-0.975,1.795-2.846,2.91-4.886,2.91c-1.936,0-3.703-0.99-4.726-2.647c-0.542-0.879-0.829-1.885-0.829-2.907
			c0-3.062,2.492-5.554,5.554-5.554c3.062,0,5.554,2.492,5.554,5.554C47.87,25.672,47.637,26.587,47.202,27.392z"/>
		<path d="M57.055,70.84c0.36-0.072,0.651-0.336,0.76-0.688l6.396-21.099c0.09-0.295,0.038-0.617-0.144-0.869
			c-1.154-1.627-2.399-3.108-3.707-4.413c0.62-2.948,0.935-5.953,0.935-8.943c0-14.307-7.072-27.594-18.457-34.677
			c-0.325-0.201-0.732-0.201-1.059,0c-11.383,7.082-18.456,20.37-18.456,34.676c0,2.9,0.294,5.815,0.875,8.674
			c-1.305,1.305-2.55,2.787-3.707,4.416c-0.179,0.254-0.231,0.573-0.142,0.869l6.399,21.098c0.107,0.354,0.398,0.616,0.759,0.689
			c0.359,0.072,0.731-0.06,0.967-0.342c1.758-2.118,4.194-3.789,6.953-4.789v1.114c0,0.552,0.448,1,1,1h11.704c0.551,0,1-0.448,1-1
			v-0.851c2.758,1,5.193,2.675,6.953,4.789c0.191,0.23,0.477,0.361,0.771,0.361C56.925,70.859,56.99,70.851,57.055,70.84z
			 M48.404,63.375c-0.088-0.021-0.179-0.035-0.269-0.035c-0.217,0-0.432,0.068-0.604,0.205c-0.249,0.188-0.396,0.481-0.396,0.795
			v1.217h-9.704v-1.482c0-0.312-0.146-0.604-0.395-0.796c-0.25-0.188-0.575-0.251-0.873-0.167c-3.055,0.853-5.839,2.437-8.002,4.525
			l-5.75-18.957c1.121-1.533,2.322-2.92,3.575-4.127c0.25-0.239,0.357-0.596,0.284-0.935c-0.626-2.895-0.944-5.853-0.944-8.793
			c0-13.396,6.493-25.843,16.984-32.644c10.492,6.8,16.984,19.246,16.984,32.644c0,3.021-0.336,6.06-0.998,9.031
			c-0.037,0.164-0.021,0.368,0.023,0.528c0.048,0.17,0.143,0.32,0.268,0.441c1.25,1.205,2.446,2.587,3.563,4.116l-5.75,18.958
			C54.243,65.808,51.458,64.224,48.404,63.375z"/>
		<path d="M55.77,29.057c-0.551,0.044-0.961,0.525-0.918,1.077c0.012,0.124,0.912,12.532-5.34,26.434
			c-0.229,0.504-0.002,1.096,0.502,1.32c0.135,0.062,0.271,0.09,0.41,0.09c0.381,0,0.746-0.221,0.914-0.592
			c6.471-14.394,5.551-26.891,5.508-27.415C56.802,29.425,56.327,29.018,55.77,29.057z"/>
		<path d="M42.234,84.562c0.401,0,0.767-0.241,0.922-0.612l5.764-13.704c0.129-0.309,0.096-0.659-0.09-0.938
			c-0.187-0.278-0.498-0.446-0.833-0.446H36.471c-0.335,0-0.647,0.167-0.833,0.446c-0.185,0.279-0.219,0.633-0.089,0.938
			l5.763,13.704C41.468,84.321,41.832,84.562,42.234,84.562z M46.492,70.859l-4.258,10.124l-4.258-10.124H46.492z"/>
	</g>
</g>
<g>
</g>
<g>
</g>
<g>
</g>
<g>
</g>
<g>
</g>
<g>
</g>
<g>
</g>
<g>
</g>
<g>
</g>
<g>
</g>
<g>
</g>
<g>
</g>
<g>
</g>
<g>
</g>
<g>
</g>
</svg>
